<svg aria-hidden="true" style="position: absolute; width: 0; height: 0; overflow: hidden;" version="1.1" xmlns="http://www.w3.org/2000/svg" xmlns:xlink="http://www.w3.org/1999/xlink">
<defs>
<symbol id="icon-logo" viewBox="0 0 32 32">
<path fill="#ffc727" style="fill: var(--color1, #ffc727)" d="M21.94 4.396c-2.263-0.566-4.526-1.698-6.223-3.397-1.697 1.698-3.96 2.83-6.223 3.397 0.566 5.095 2.263 8.491 6.223 11.322 3.96-2.831 6.223-6.227 6.223-11.322z"></path>
<path fill="#fbfbfb" style="fill: var(--color2, #fbfbfb)" d="M19.677 25.474l-15.84-18.681v9.057l12.446 14.152 3.394-4.529z"></path>
<path fill="#fbfbfb" style="fill: var(--color2, #fbfbfb)" d="M21.375 23.776l6.789-7.925v-8.491l-10.749 12.454 3.96 3.963z"></path>
<path fill="#fbfbfb" style="fill: var(--color2, #fbfbfb)" d="M21.94 26.606v5.095l6.223-7.359v-5.095l-6.223 7.359z"></path>
<path fill="#fbfbfb" style="fill: var(--color2, #fbfbfb)" d="M10.060 26.606l-6.223-7.359v5.095l6.223 7.359v-5.095z"></path>
</symbol>
<symbol id="icon-email" viewBox="0 0 32 32">
<path d="M26.667 5.333h-21.333c-1.467 0-2.653 1.2-2.653 2.667l-0.013 16c0 1.467 1.2 2.667 2.667 2.667h21.333c1.467 0 2.667-1.2 2.667-2.667v-16c0-1.467-1.2-2.667-2.667-2.667zM26.667 10.667l-10.667 6.667-10.667-6.667v-2.667l10.667 6.667 10.667-6.667v2.667z"></path>
</symbol>
<symbol id="icon-lock" viewBox="0 0 32 32">
<path d="M24 10.667h-1.333v-2.667c0-3.68-2.987-6.667-6.667-6.667s-6.667 2.987-6.667 6.667v2.667h-1.333c-1.467 0-2.667 1.2-2.667 2.667v13.333c0 1.467 1.2 2.667 2.667 2.667h16c1.467 0 2.667-1.2 2.667-2.667v-13.333c0-1.467-1.2-2.667-2.667-2.667zM16 22.667c-1.467 0-2.667-1.2-2.667-2.667s1.2-2.667 2.667-2.667c1.467 0 2.667 1.2 2.667 2.667s-1.2 2.667-2.667 2.667zM20.133 10.667h-8.267v-2.667c0-2.28 1.853-4.133 4.133-4.133s4.133 1.853 4.133 4.133v2.667z"></path>
</symbol>
<symbol id="icon-user" viewBox="0 0 32 32">
<path d="M16 20c-4.227 0-7.986 2.041-10.379 5.208-0.515 0.682-0.773 1.022-0.764 1.483 0.006 0.356 0.23 0.805 0.51 1.025 0.362 0.284 0.865 0.284 1.869 0.284h17.527c1.005 0 1.507 0 1.869-0.284 0.28-0.22 0.503-0.669 0.51-1.025 0.008-0.461-0.249-0.801-0.764-1.483-2.393-3.167-6.152-5.208-10.379-5.208z"></path>
<path d="M16 16c3.314 0 6-2.686 6-6s-2.686-6-6-6c-3.314 0-6 2.686-6 6s2.686 6 6 6z"></path>
</symbol>
</defs>
</svg>
